<svg viewBox="0 0 1024 1024" xmlns="http://www.w3.org/2000/svg"><circle cx="512" cy="512" fill="#ff9800" r="512"/><path d="M324.448,590.086L298.146,680.71L237.73,680.71L346.786,345.862L416.418,345.862L525.474,680.71L463.01,680.71L436.968,590.086L324.448,590.086ZM423.58,543.494L411.81,502.534C406.178,484.614 401.058,466.694 396.45,447.75C391.33,428.806 386.21,410.374 381.602,391.942L379.554,391.942C374.946,410.886 370.338,429.318 365.73,447.75C360.61,466.694 355.49,484.614 349.858,502.534L337.97,543.494L423.58,543.494ZM554.657,680.71L554.657,343.302L632.993,343.302C667.297,343.302 695.969,349.958 719.009,363.782C741.537,377.606 758.433,397.062 769.697,422.15C780.449,447.238 786.081,476.934 786.081,510.726C786.081,545.03 780.449,574.726 769.697,600.326C758.433,625.926 741.537,645.382 719.009,659.718C696.481,673.542 667.809,680.71 633.505,680.71L554.657,680.71ZM578.209,660.742L630.433,660.742C661.153,660.742 685.729,654.086 705.185,641.286C724.129,628.486 738.465,611.078 747.681,588.55C756.897,566.022 761.505,540.422 761.505,510.726C761.505,481.542 756.897,455.942 747.681,433.414C738.465,411.398 724.129,393.99 705.185,381.702C685.729,369.414 661.153,363.27 630.433,363.27L578.209,363.27L578.209,660.742Z" fill="#fff"/></svg>