<?xml version="1.0" encoding="UTF-8" standalone="no"?> <!DOCTYPE svg PUBLIC "-//W3C//DTD SVG 1.1//EN" "http://www.w3.org/Graphics/SVG/1.1/DTD/svg11.dtd"><svg height="100%" style="fill-rule:evenodd;clip-rule:evenodd;stroke-linecap:round;stroke-linejoin:round" version="1.1" viewBox="0 0 35 35" width="100%" xml:space="preserve" xmlns="http://www.w3.org/2000/svg" xmlns:xlink="http://www.w3.org/1999/xlink"><path d="M10.534,23.706L7.031,23.706C6.649,23.706 6.27,23.668 5.896,23.594C5.521,23.519 5.158,23.409 4.805,23.262C4.452,23.116 4.117,22.937 3.8,22.725C3.482,22.512 3.189,22.271 2.919,22.001C2.649,21.731 2.408,21.437 2.195,21.12C1.983,20.802 1.804,20.467 1.658,20.114C1.512,19.761 1.402,19.398 1.327,19.023C1.253,18.649 1.215,18.27 1.215,17.889C1.215,17.507 1.253,17.129 1.327,16.754C1.402,16.379 1.512,16.016 1.658,15.663C1.804,15.31 1.983,14.975 2.195,14.657C2.408,14.34 2.649,14.046 2.919,13.776C3.189,13.506 3.482,13.265 3.8,13.053C4.117,12.84 4.452,12.661 4.805,12.515C5.158,12.369 5.521,12.258 5.896,12.184C6.27,12.109 6.649,12.072 7.031,12.071L14.798,12.071C17.996,12.071 20.42,14.689 20.42,17.871" style="fill:none;fill-rule:nonzero;stroke:black;stroke-width:2.32px"/><path d="M23.714,12.071L27.967,12.071C28.349,12.071 28.728,12.109 29.102,12.183C29.477,12.258 29.841,12.368 30.194,12.514C30.546,12.66 30.882,12.84 31.199,13.052C31.517,13.264 31.811,13.505 32.081,13.775C32.351,14.045 32.592,14.339 32.804,14.657C33.016,14.974 33.196,15.31 33.342,15.662C33.488,16.015 33.598,16.379 33.673,16.754C33.747,17.128 33.785,17.507 33.785,17.889C33.785,18.271 33.747,18.649 33.673,19.023C33.598,19.398 33.488,19.762 33.342,20.115C33.196,20.468 33.016,20.803 32.804,21.12C32.592,21.438 32.351,21.732 32.081,22.002C31.811,22.272 31.517,22.513 31.199,22.725C30.882,22.938 30.546,23.117 30.194,23.263C29.841,23.409 29.477,23.519 29.102,23.594C28.728,23.668 28.349,23.706 27.967,23.706L20.223,23.706C17.025,23.706 14.214,21.088 14.214,17.906" style="fill:none;fill-rule:nonzero;stroke:black;stroke-width:2.32px"/><path d="M1.231,1.995L1.231,17.5" style="fill:none;fill-rule:nonzero;stroke:black;stroke-width:2.32px"/><path d="M14.214,17.5L14.214,33.005" style="fill:none;fill-rule:nonzero;stroke:black;stroke-width:2.32px"/></svg>