<svg style="fill:none;stroke:black;stroke-width:6px;stroke-linecap:round;stroke-linejoin:round;stroke-miterlimit:1.5" viewBox="0 0 86 86" xmlns="http://www.w3.org/2000/svg"><path d="M27,58.92L18.972,58.92C10.151,58.92 3,51.769 3,42.948C3,42.947 3,42.946 3,42.945C3,38.7 4.69,34.629 7.697,31.633C10.704,28.636 14.78,26.959 19.025,26.973C24.221,26.991 29.979,27.01 35.161,27.027C43.917,27.056 51,34.163 51,42.919C51,42.92 51,42.92 51,42.92M59,27.027L67.028,27.027C75.849,27.027 83,34.178 83,42.999C83,43 83,43 83,43.001C83,47.247 81.31,51.317 78.303,54.314C75.296,57.311 71.22,58.987 66.975,58.973C61.779,58.956 56.021,58.937 50.839,58.919C42.083,58.89 35,51.784 35,43.028C35,43.027 35,43.027 35,43.027M3,43L3,3M35,43L35,83"/></svg>