<svg style="fill:none;stroke:black;stroke-width:22px" viewBox="0 0 262 262" xmlns="http://www.w3.org/2000/svg"><path d="M204,91L215,91C224.547,91 233.704,94.793 240.456,101.544C247.207,108.295 250.999,117.452 250.999,127L250.999,251L127.001,251C117.452,251 108.296,247.207 101.545,240.456C94.793,233.704 91,224.548 91,215L91,91L182,91M58,171L47.001,171C37.452,171 28.296,167.207 21.545,160.456C14.793,153.704 11,144.548 11,135L11,11L135,11C154.882,11 170.999,27.118 170.999,47L170.999,171L80,171"/></svg>