<svg viewBox="0 0 64 64" xmlns="http://www.w3.org/2000/svg"><path d="M4.272,46.17C2.176,41.905 1,37.096 1,32C1,26.9 2.177,22.089 4.276,17.821C9.481,7.239 20.354,-0 33,-0C41.145,-0 48.418,3.055 54.091,8L44.782,17.309C41.582,14.691 37.509,13.091 33,13.091C24.607,13.091 17.522,18.509 15.039,26.051C14.424,27.92 14.091,29.92 14.091,32C14.091,34.07 14.421,36.061 15.03,37.922L15.039,37.949C17.522,45.491 24.607,50.909 33,50.909C37.112,50.909 40.755,49.941 43.64,48.12C46.981,46.012 49.305,42.76 50.164,38.545L33,38.545L33,26.182L62.818,26.182C63.255,28.073 63.545,30.109 63.545,32C63.545,42.43 59.73,50.57 53.857,56.03C48.264,61.231 40.805,64 33,64C20.354,64 9.481,56.761 4.276,46.179L4.272,46.17Z"/></svg>