<?xml version="1.0" encoding="UTF-8" standalone="no"?><!DOCTYPE svg PUBLIC "-//W3C//DTD SVG 1.1//EN" "http://www.w3.org/Graphics/SVG/1.1/DTD/svg11.dtd"><svg height="100%" style="fill-rule:evenodd;clip-rule:evenodd;stroke-linejoin:round;stroke-miterlimit:2" version="1.1" viewBox="0 0 485 480" width="100%" xml:space="preserve" xmlns="http://www.w3.org/2000/svg" xmlns:serif="http://www.serif.com/" xmlns:xlink="http://www.w3.org/1999/xlink"><path d="M185.689,174.653L185.689,129.07C185.689,125.231 187.13,122.351 190.487,120.433L282.135,67.654C294.61,60.457 309.485,57.1 324.837,57.1C382.414,57.1 418.883,101.724 418.883,149.224C418.883,152.582 418.883,156.421 418.402,160.26L323.397,104.6C317.64,101.242 311.88,101.242 306.123,104.6L185.689,174.653ZM399.688,352.187L399.688,243.266C399.688,236.546 396.807,231.749 391.051,228.391L270.617,158.338L309.962,135.785C313.32,133.868 316.2,133.868 319.558,135.785L411.205,188.565C437.597,203.921 455.348,236.546 455.348,268.213C455.348,304.678 433.758,338.266 399.688,352.183L399.688,352.187ZM157.38,256.224L118.035,233.194C114.678,231.276 113.237,228.396 113.237,224.557L113.237,118.998C113.237,67.658 152.582,28.79 205.843,28.79C225.998,28.79 244.707,35.51 260.545,47.504L166.021,102.206C160.265,105.563 157.385,110.361 157.385,117.08L157.385,256.228L157.38,256.224ZM242.069,305.164L185.689,273.497L185.689,206.325L242.069,174.658L298.445,206.325L298.445,273.497L242.069,305.164ZM278.295,451.031C258.141,451.031 239.432,444.312 223.594,432.317L318.117,377.616C323.874,374.259 326.754,369.461 326.754,362.741L326.754,223.594L366.581,246.624C369.938,248.541 371.379,251.421 371.379,255.26L371.379,360.819C371.379,412.159 331.552,451.027 278.295,451.027L278.295,451.031ZM164.577,344.032L72.929,291.252C46.537,275.896 28.786,243.271 28.786,211.604C28.786,174.658 50.858,141.551 84.923,127.635L84.923,237.033C84.923,243.752 87.804,248.55 93.56,251.907L213.517,321.479L174.172,344.032C170.815,345.949 167.934,345.949 164.577,344.032ZM159.302,422.722C105.082,422.722 65.256,381.937 65.256,331.556C65.256,327.717 65.737,323.878 66.214,320.039L160.738,374.74C166.494,378.098 172.255,378.098 178.011,374.74L298.445,305.169L298.445,350.751C298.445,354.591 297.005,357.471 293.647,359.388L202,412.168C189.524,419.364 174.649,422.722 159.297,422.722L159.302,422.722ZM278.295,479.818C336.354,479.818 384.813,438.555 395.853,383.854C449.592,369.938 484.139,319.557 484.139,268.218C484.139,234.629 469.746,202.004 443.835,178.492C446.234,168.415 447.674,158.338 447.674,148.266C447.674,79.653 392.014,28.309 327.717,28.309C314.765,28.309 302.289,30.226 289.813,34.547C268.218,13.434 238.469,0 205.843,0C147.785,0 99.326,41.262 88.286,95.963C34.547,109.879 0,160.26 0,211.599C0,245.188 14.393,277.813 40.304,301.325C37.905,311.402 36.465,321.479 36.465,331.551C36.465,400.164 92.125,451.508 156.421,451.508C169.374,451.508 181.85,449.591 194.326,445.27C215.916,466.383 245.665,479.818 278.295,479.818Z" style="fill-rule:nonzero"/></svg>