<svg viewBox="0 0 25 25" xmlns="http://www.w3.org/2000/svg"><path d="M14,1L14,0L15,0L15,1L14,1ZM12,6L13,6L13,8L12,8L12,6ZM9,1L8,1L8,0L12,0L12,1L10,1L10,2L13,2L13,1L14,1L14,3L11,3L11,4L12,4L12,6L11,6L11,7L10,7L10,3L9,3L9,5L8,5L8,2L9,2L9,1ZM15,4L15,2L16,2L16,3L17,3L17,5L16,5L16,4L15,4ZM7,9L6,9L6,8L7,8L7,9ZM11,9L10,9L10,8L11,8L11,9ZM11,10L11,9L12,9L12,10L11,10ZM15,7L14,7L14,5L15,5L15,7ZM15,10L15,9L16,9L16,8L15,8L15,7L16,7L16,6L17,6L17,8L18,8L18,10L15,10ZM15,11L13,11L13,10L15,10L15,11ZM23,17L23,14L25,14L25,16L24,16L24,17L23,17ZM21,23L21,24L20,24L20,23L21,23ZM17,24L17,25L16,25L16,24L17,24ZM7,16L7,17L6,17L6,16L7,16ZM1,15L1,16L0,16L0,15L1,15ZM5,10L7,10L7,11L6,11L6,12L5,12L5,10ZM7,10L7,9L8,9L8,8L9,8L9,10L11,10L11,11L12,11L12,12L11,12L11,13L9,13L9,12L8,12L8,10L7,10ZM12,12L15,12L15,11L16,11L16,13L17,13L17,14L15,14L15,15L14,15L14,13L12,13L12,12ZM17,14L18,14L18,16L21,16L21,17L23,17L23,18L25,18L25,22L24,22L24,23L25,23L25,25L22,25L22,23L21,23L21,22L23,22L23,21L24,21L24,20L23,20L23,19L22,19L22,18L21,18L21,22L20,22L20,21L19,21L19,23L18,23L18,24L17,24L17,22L18,22L18,21L17,21L17,22L16,22L16,23L15,23L15,22L14,22L14,21L16,21L16,19L15,19L15,20L14,20L14,21L13,21L13,20L12,20L12,19L13,19L13,18L12,18L12,17L11,17L11,19L10,19L10,18L8,18L8,16L7,16L7,15L10,15L10,16L9,16L9,17L10,17L10,16L11,16L11,15L12,15L12,16L14,16L14,17L16,17L16,15L17,15L17,14ZM15,23L15,25L14,25L14,24L13,24L13,25L12,25L12,24L11,24L11,25L8,25L8,21L9,21L9,22L10,22L10,23L9,23L9,24L10,24L10,23L13,23L13,22L14,22L14,23L15,23ZM10,22L10,20L11,20L11,22L10,22ZM10,20L9,20L9,19L10,19L10,20ZM7,15L3,15L3,14L2,14L2,15L1,15L1,13L4,13L4,14L5,14L5,13L6,13L6,14L7,14L7,15ZM6,13L6,12L7,12L7,13L6,13ZM20,17L17,17L17,20L20,20L20,17ZM7,13L9,13L9,14L7,14L7,13ZM10,15L10,14L11,14L11,15L10,15ZM23,21L22,21L22,20L23,20L23,21ZM13,22L12,22L12,21L13,21L13,22ZM2,11L4,11L4,12L2,12L2,11ZM0,11L0,8L4,8L4,9L5,9L5,10L3,10L3,9L1,9L1,10L2,10L2,11L0,11ZM19,18L19,19L18,19L18,18L19,18ZM21,10L19,10L19,9L20,9L20,8L23,8L23,9L21,9L21,10ZM18,13L18,11L20,11L20,12L21,12L21,10L24,10L24,8L25,8L25,13L23,13L23,12L24,12L24,11L23,11L23,12L22,12L22,15L19,15L19,13L18,13ZM21,13L20,13L20,14L21,14L21,13ZM0,7L0,0L7,0L7,7L0,7ZM6,1L1,1L1,6L6,6L6,1ZM2,5L2,2L5,2L5,5L2,5ZM0,25L0,18L7,18L7,25L0,25ZM6,19L1,19L1,24L6,24L6,19ZM2,23L2,20L5,20L5,23L2,23ZM18,7L18,0L25,0L25,7L18,7ZM24,1L19,1L19,6L24,6L24,1ZM20,5L20,2L23,2L23,5L20,5ZM17,0L17,1L16,1L16,0L17,0ZM9,6L9,7L8,7L8,6L9,6ZM4,16L4,17L3,17L3,16L4,16Z"/></svg>